<svg width="57" height="65" viewBox="0 0 57 65" fill="none" xmlns="http://www.w3.org/2000/svg">
<path d="M27.5771 31.9132C27.093 30.3335 27.873 28.7559 29.074 28.1548C30.3804 27.5008 32.4027 27.5988 33.6022 29.9314C33.1697 28.1659 34.1622 26.7227 35.3132 26.2036C36.6877 25.583 38.6379 25.9958 39.6686 28.0671C39.583 27.4986 39.5303 27.0028 39.6503 26.5121C39.9582 25.2551 40.75 24.4331 41.9856 24.1503C43.3798 23.8319 44.5204 24.3637 45.3128 25.5414C46.0803 26.682 46.7796 27.8705 47.5019 29.0418C48.3007 30.3361 49.1116 31.6227 49.7727 32.9988C50.5711 34.66 51.1738 36.3845 51.6307 38.1715C52.4219 41.2683 52.4042 44.4006 52.1703 47.545C52.0695 48.8984 51.4169 49.982 50.2896 50.7107C48.0778 52.1406 45.8478 53.544 43.6019 54.9201C42.9447 55.3225 42.1722 55.4608 41.4006 55.5283C39.4502 55.6994 37.5377 55.4303 35.6367 55.0105C31.8376 54.1714 28.3162 52.609 24.9012 50.7763C23.2588 49.8947 21.6275 48.9922 20.0511 47.9931C18.1605 46.7944 18.0842 44.0606 19.9275 42.8258C20.9752 42.1246 22.0907 42.1219 23.1851 42.7224C24.7117 43.5592 26.2169 44.4363 27.732 45.2949C27.899 45.3895 28.0768 45.4889 28.2505 45.315C28.4737 45.0918 28.2933 44.8972 28.1803 44.7156C26.9672 42.7686 25.7478 40.8259 24.5317 38.8806C21.59 34.1745 18.6464 29.4691 15.7082 24.7611C14.6716 23.0997 15.1238 21.2098 16.7813 20.2144C18.0569 19.4486 19.9289 19.8499 20.7939 21.1456C21.7622 22.597 22.6651 24.0924 23.5932 25.5706C24.8659 27.598 26.1354 29.6281 27.4065 31.6569C27.4518 31.7309 27.5029 31.8029 27.5771 31.9132Z" fill="#FCEE21"/>
<path d="M18.9533 15.1155C18.8519 14.8794 18.8737 14.6134 18.9346 14.3481C19.3028 12.7364 19.6681 11.1242 20.0431 9.51365C20.204 8.82226 20.8117 8.422 21.49 8.53842C22.1014 8.64311 22.5653 9.2594 22.462 9.93518C22.3468 10.6848 22.1606 11.4235 22.0004 12.1659C21.807 13.0615 21.6143 13.9568 21.4086 14.8495C21.2227 15.6564 20.6838 16.0656 19.9574 15.9736C19.484 15.9145 19.1247 15.613 18.9533 15.1155Z" fill="#FCEE21"/>
<path d="M11.2421 20.6718C11.4062 21.1668 11.2857 21.5744 10.9851 21.9453C10.6483 22.3608 10.1971 22.4293 9.71677 22.3234C8.49958 22.0545 7.28782 21.7644 6.0732 21.4825C5.6937 21.3944 5.31137 21.3166 4.93612 21.2143C4.19897 21.0136 3.79495 20.3908 3.94123 19.7023C4.07813 19.0541 4.73095 18.6268 5.45711 18.7815C7.10021 19.1317 8.73677 19.5141 10.3743 19.8911C10.8102 19.991 11.0835 20.2888 11.2421 20.6718Z" fill="#FCEE21"/>
<path d="M25.8148 19.6456C25.1857 19.8596 24.5527 19.6086 24.2795 19.078C23.9655 18.4682 24.0879 17.8435 24.6453 17.4835C26.0726 16.562 27.5066 15.6496 28.9531 14.7592C29.5899 14.3674 30.2893 14.557 30.6688 15.1619C31.0182 15.7188 30.8721 16.4322 30.2681 16.829C28.8573 17.7555 27.4286 18.6546 26.0049 19.562C25.9301 19.6093 25.8425 19.6339 25.8148 19.6456Z" fill="#FCEE21"/>
<path d="M14.9291 15.3899C15.1398 16.0012 14.9069 16.6335 14.4169 16.8919C13.8335 17.1991 13.1486 17.0657 12.8125 16.5412C11.8716 15.0731 10.9396 13.5999 10.0185 12.1193C9.65429 11.5341 9.83864 10.8004 10.4017 10.4426C10.9858 10.0719 11.6802 10.2084 12.066 10.809C12.9964 12.2571 13.9094 13.7163 14.8268 15.1718C14.8805 15.2557 14.9129 15.3535 14.9291 15.3899Z" fill="#FCEE21"/>
<path d="M5.73371 30.5799C5.54254 30.0373 5.74439 29.4727 6.29811 29.1104C7.32009 28.443 8.35287 27.7925 9.38156 27.1363C9.74618 26.9034 10.1093 26.6682 10.4795 26.4434C11.0944 26.0698 11.8093 26.237 12.2018 26.8367C12.5725 27.404 12.4139 28.1203 11.7949 28.5266C10.8213 29.1665 9.8342 29.7856 8.85268 30.4126C8.42268 30.6873 7.99335 30.964 7.5599 31.2327C6.86863 31.6612 6.00488 31.3497 5.73371 30.5799Z" fill="#FCEE21"/>
</svg>
