<svg width="160" height="27" viewBox="0 0 160 27" fill="none" xmlns="http://www.w3.org/2000/svg">
<path d="M105.88 25.3788C104.68 25.3788 103.708 24.4169 103.708 23.2289C103.708 17.9633 99.3762 13.6774 94.0543 13.6774C88.7327 13.6774 84.4011 17.9633 84.4011 23.2289C84.4011 24.4169 83.4292 25.3788 82.2287 25.3788C81.0279 25.3788 80.056 24.4169 80.056 23.2289C80.056 15.5918 86.3358 9.37793 94.0543 9.37793C101.773 9.37793 108.053 15.5918 108.053 23.2289C108.053 24.4169 107.081 25.3788 105.88 25.3788Z" fill="white"/>
<path d="M139.293 25.3788C138.731 25.3788 138.168 25.1685 137.738 24.7498L125.768 13.0488C124.909 12.2093 124.909 10.847 125.768 10.0076C126.627 9.16805 128.018 9.16805 128.879 10.0076L139.293 20.1879L149.707 10.0076C150.566 9.16805 151.957 9.16805 152.818 10.0076C153.677 10.847 153.677 12.2093 152.818 13.0488L140.849 24.7498C140.418 25.1685 139.856 25.3788 139.293 25.3788Z" fill="white"/>
<path d="M116.759 25.3784C115.533 25.3784 114.54 24.4169 114.54 23.2292V11.1864C114.54 9.99865 115.533 9.03711 116.759 9.03711C117.986 9.03711 118.978 9.99865 118.978 11.1864V23.2292C118.978 24.4169 117.986 25.3784 116.759 25.3784Z" fill="white"/>
<path d="M116.932 5.84945C118.547 5.84945 119.857 4.54001 119.857 2.92472C119.857 1.30944 118.547 0 116.932 0C115.317 0 114.007 1.30944 114.007 2.92472C114.007 4.54001 115.317 5.84945 116.932 5.84945Z" fill="white"/>
<path d="M156.485 25.3475C158.101 25.3475 159.41 24.0381 159.41 22.4228C159.41 20.8075 158.101 19.498 156.485 19.498C154.87 19.498 153.561 20.8075 153.561 22.4228C153.561 24.0381 154.87 25.3475 156.485 25.3475Z" fill="white"/>
<path d="M66.3414 26.0607C65.1768 26.0607 64.0119 25.8343 62.9 25.3816C60.6348 24.4602 58.8624 22.7071 57.9093 20.4458C56.9564 18.1845 56.938 15.69 57.8588 13.415C58.775 11.1422 60.522 9.36368 62.7735 8.40744C65.0247 7.45122 67.5132 7.43275 69.7806 8.35663C72.0457 9.27822 73.8181 11.0313 74.7713 13.2925C75.2178 14.3504 74.7228 15.5699 73.6707 16.0157L62.9415 20.5682C63.3788 20.9723 63.8899 21.2982 64.4562 21.5291C65.6968 22.0349 67.0597 22.0232 68.2912 21.5012C69.4307 21.0185 70.3491 20.134 70.8739 19.0114C71.3597 17.9721 72.5936 17.5263 73.6295 18.0136C74.6654 18.501 75.1097 19.739 74.6239 20.7784C73.6641 22.8293 71.9858 24.4463 69.9048 25.3309C68.7586 25.8181 67.55 26.0607 66.3414 26.0607ZM64.3871 12.237C63.1557 12.7613 62.198 13.7337 61.6939 14.9786C61.4635 15.5468 61.3415 16.1427 61.3253 16.7387L69.7368 13.1701C69.2995 12.7659 68.7862 12.4495 68.2221 12.2093C67.5361 11.9182 66.0559 11.5256 64.3871 12.237Z" fill="white"/>
<path d="M50.5406 9.34668C49.3262 9.34668 48.3432 10.3084 48.3432 11.4964C48.3432 16.7621 43.9622 21.0479 38.5799 21.0479C33.1973 21.0479 28.8163 16.7621 28.8163 11.4964C28.8163 10.3084 27.8334 9.34668 26.6189 9.34668C25.4047 9.34668 24.4215 10.3084 24.4215 11.4964C24.4215 16.7621 20.0407 21.0479 14.6582 21.0479C9.27573 21.0479 4.8948 16.7621 4.8948 11.4964C4.8948 10.3084 3.91176 9.34668 2.69739 9.34668C1.48304 9.34668 0.5 10.3084 0.5 11.4964C0.5 19.1336 6.85164 25.3475 14.6582 25.3475C19.6868 25.3475 24.107 22.7679 26.6189 18.8938C29.1311 22.7679 33.5536 25.3475 38.5799 25.3475C46.3864 25.3475 52.7381 19.1336 52.7381 11.4964C52.7381 10.3084 51.7548 9.34668 50.5406 9.34668Z" fill="white"/>
</svg>
